<svg width="30" height="30" viewBox="0 0 30 30" fill="none" xmlns="http://www.w3.org/2000/svg">
<path d="M15 4.17041C15.5602 4.17041 16.0951 4.31484 16.5801 4.59424C17.1682 4.93276 17.5644 5.44493 17.8047 6.01416L17.8057 6.01709L19.2979 9.56982L23.1475 9.90576L23.1562 9.90674H23.1641C23.6903 9.95837 24.201 10.129 24.6504 10.4468L24.8398 10.5923L24.999 10.7349C25.3075 11.03 25.551 11.3824 25.7129 11.7856L25.7871 11.9917V11.9927C25.9586 12.5303 25.9774 13.0834 25.8604 13.6235C25.7197 14.2725 25.3642 14.8009 24.8887 15.1987L24.8896 15.1997L21.9492 17.7534L22.834 21.522L22.8398 21.5454L22.8447 21.5688C22.961 22.1453 22.9329 22.7462 22.7061 23.3257C22.4979 23.8574 22.1581 24.3158 21.6924 24.6626C21.2135 25.0192 20.6626 25.2075 20.0869 25.2476V25.2485C19.4357 25.2935 18.8298 25.1193 18.3018 24.8022L18.2998 24.8003L15 22.811L11.7002 24.8003L11.6982 24.8022C11.1702 25.1193 10.5643 25.2935 9.91309 25.2485V25.2476C9.33739 25.2075 8.78647 25.0192 8.30762 24.6626C7.84193 24.3158 7.50108 23.8584 7.29297 23.3267V23.3257C7.06624 22.7463 7.03907 22.1452 7.15527 21.5688L7.16016 21.5454L7.16602 21.522L8.0498 17.7534L5.11035 15.1997L5.11133 15.1987C4.63585 14.8009 4.28032 14.2724 4.13965 13.6235C4.02259 13.0834 4.04144 12.5303 4.21289 11.9927V11.9917C4.3919 11.432 4.72083 10.96 5.16016 10.5923L5.34961 10.4468C5.79898 10.129 6.30967 9.95838 6.83594 9.90674H6.84375L6.85254 9.90576L10.7012 9.56982L12.1943 6.01709L12.1953 6.01416C12.4356 5.44498 12.8309 4.93179 13.4189 4.59326V4.59424C13.9042 4.31456 14.4395 4.17041 15 4.17041Z" fill="white" stroke="#2B2542" stroke-width="3"/>
</svg>
